<svg width="25" height="28" viewBox="0 0 25 28" fill="none" xmlns="http://www.w3.org/2000/svg">
<path d="M17.1875 5.10557C17.1875 2.2858 15.0889 0 12.5 0C9.91113 0 7.8125 2.2858 7.8125 5.10557C7.8125 7.92533 9.91113 10.2111 12.5 10.2111C15.0889 10.2111 17.1875 7.92533 17.1875 5.10557ZM11.4058 12.8224C8.50879 10.8908 3.81641 10.36 1.45508 10.2138C0.661621 10.1649 0 10.8233 0 11.6545V23.5037C0 24.2658 0.565918 24.9013 1.29346 24.9423C3.42529 25.0641 7.73828 25.5103 10.7192 27.1457C11.1768 27.3967 11.7192 27.0547 11.7192 26.5144V13.4319C11.7188 13.1835 11.606 12.9559 11.4058 12.8224ZM23.5449 10.2138C21.1841 10.3595 16.4912 10.8908 13.5947 12.8224C13.3945 12.9559 13.2817 13.1926 13.2817 13.4409V26.5128C13.2817 27.0547 13.8257 27.3972 14.2847 27.1457C17.2651 25.5119 21.5757 25.0657 23.707 24.9439C24.4346 24.9024 25.0005 24.2669 25.0005 23.5047V11.6545C25 10.8233 24.3384 10.1649 23.5449 10.2138Z" fill="white"/>
</svg>
